#define uo_width 15
#define uo_height 15
static unsigned char uo_bits[] = {
   0x00, 0x00, 0x00, 0x00, 0x00, 0x00, 0x00, 0x00, 0x00, 0x03, 0x80, 0x01,
   0xc0, 0x00, 0x60, 0x00, 0x60, 0x00, 0xc0, 0x00, 0x80, 0x01, 0x00, 0x03,
   0x00, 0x00, 0x00, 0x00, 0x00, 0x00 };
