#define align_h_width 15
#define align_h_height 15
static unsigned char align_h_bits[] = {
   0x80, 0x00, 0x80, 0x00, 0x80, 0x00, 0xa0, 0x02, 0xe0, 0x03, 0xc0, 0x01,
   0x80, 0x00, 0xf8, 0x0f, 0x80, 0x00, 0xc0, 0x01, 0xe0, 0x03, 0xa0, 0x02,
   0x80, 0x00, 0x80, 0x00, 0x80, 0x00 };
