#define ccircle_width 15
#define ccircle_height 15
static unsigned char ccircle_bits[] = {
   0x00, 0x00, 0x00, 0x00, 0x00, 0x00, 0xc0, 0x01, 0x70, 0x07, 0x10, 0x04,
   0xd8, 0x0d, 0xc8, 0x09, 0xd8, 0x0d, 0x10, 0x04, 0x70, 0x07, 0xc0, 0x01,
   0x00, 0x00, 0x00, 0x00, 0x00, 0x00 };
