#define cdiamond_width 15
#define cdiamond_height 15
static unsigned char cdiamond_bits[] = {
   0x00, 0x00, 0x00, 0x00, 0x80, 0x00, 0xc0, 0x01, 0x60, 0x03, 0x30, 0x06,
   0x98, 0x0c, 0xcc, 0x19, 0x98, 0x0c, 0x30, 0x06, 0x60, 0x03, 0xc0, 0x01,
   0x80, 0x00, 0x00, 0x00, 0x00, 0x00 };
