#define circle_width 15
#define circle_height 15
static unsigned char circle_bits[] = {
   0x00, 0x00, 0x00, 0x00, 0x00, 0x00, 0xc0, 0x01, 0xf0, 0x07, 0xf0, 0x07,
   0xf8, 0x0f, 0xf8, 0x0f, 0xf8, 0x0f, 0xf0, 0x07, 0xf0, 0x07, 0xc0, 0x01,
   0x00, 0x00, 0x00, 0x00, 0x00, 0x00 };
