#define csquare_width 15
#define csquare_height 15
static unsigned char csquare_bits[] = {
   0x00, 0x00, 0x00, 0x00, 0x00, 0x00, 0xf8, 0x0f, 0x08, 0x08, 0xe8, 0x0b,
   0xe8, 0x0b, 0xe8, 0x0b, 0xe8, 0x0b, 0xe8, 0x0b, 0x08, 0x08, 0xf8, 0x0f,
   0x00, 0x00, 0x00, 0x00, 0x00, 0x00 };
