#define distribute_h_width 15
#define distribute_h_height 15
static unsigned char distribute_h_bits[] = {
   0x00, 0x00, 0x00, 0x00, 0x00, 0x00, 0x88, 0x08, 0x88, 0x08, 0x88, 0x08,
   0x88, 0x08, 0x88, 0x08, 0x88, 0x08, 0x88, 0x08, 0x88, 0x08, 0x88, 0x08,
   0x00, 0x00, 0x00, 0x00, 0x00, 0x00 };
