#define invisible_width 15
#define invisible_height 15
static unsigned char invisible_bits[] = {
   0x00, 0x00, 0x00, 0x20, 0x00, 0x30, 0x00, 0x18, 0xe0, 0x0f, 0x78, 0x1e,
   0x1c, 0x3b, 0xc6, 0x63, 0xc6, 0x63, 0xec, 0x38, 0x78, 0x1e, 0xf0, 0x07,
   0x18, 0x00, 0x0c, 0x00, 0x00, 0x00 };
