#define ocircle_width 15
#define ocircle_height 15
static unsigned char ocircle_bits[] = {
   0x00, 0x00, 0x00, 0x00, 0x00, 0x00, 0xc0, 0x01, 0x70, 0x07, 0x10, 0x04,
   0x18, 0x0c, 0x08, 0x08, 0x18, 0x0c, 0x10, 0x04, 0x70, 0x07, 0xc0, 0x01,
   0x00, 0x00, 0x00, 0x00, 0x00, 0x00 };
