#define otriangle_width 15
#define otriangle_height 15
static unsigned char otriangle_bits[] = {
   0x00, 0x00, 0x80, 0x00, 0xc0, 0x01, 0x40, 0x01, 0x60, 0x03, 0x20, 0x02,
   0x30, 0x06, 0x10, 0x04, 0x18, 0x0c, 0x08, 0x08, 0x0c, 0x18, 0xfc, 0x1f,
   0x00, 0x00, 0x00, 0x00, 0x00, 0x00 };
