#define unhinge_width 15
#define unhinge_height 15
static unsigned char unhinge_bits[] = {
   0x00, 0x00, 0x60, 0x00, 0x30, 0x00, 0x18, 0x00, 0x0c, 0x00, 0xfe, 0x07,
   0x0c, 0x04, 0x18, 0x04, 0x30, 0x04, 0x60, 0x04, 0x00, 0x04, 0x00, 0x04,
   0x00, 0x04, 0x00, 0x00, 0x00, 0x00 };
