#define 1543280888699_width 15
#define 1543280888699_height 15
static char 1543280888699_bits[] = {
  0x00, 0x00, 0x06, 0x00, 0x06, 0x00, 0x06, 0x00, 0x06, 0x00, 0x06, 0x03, 
  0x86, 0x03, 0xC6, 0x01, 0xE6, 0x00, 0x76, 0x00, 0x3E, 0x00, 0x1E, 0x00, 
  0xFE, 0x3F, 0xFE, 0x3F, 0x00, 0x00, };
