#define right_width 15
#define right_height 15
static unsigned char right_bits[] = {
   0x00, 0x00, 0x00, 0x00, 0x00, 0x00, 0x00, 0x00, 0x30, 0x00, 0x60, 0x00,
   0xc0, 0x00, 0x80, 0x01, 0x80, 0x01, 0xc0, 0x00, 0x60, 0x00, 0x30, 0x00,
   0x00, 0x00, 0x00, 0x00, 0x00, 0x00 };
