#define uo_width 15
#define uo_height 15
static unsigned char uo_bits[] = {
   0x00, 0x00, 0x00, 0x00, 0x00, 0x00, 0x00, 0x00, 0xc0, 0x00, 0xe0, 0x01,
   0x30, 0x03, 0x18, 0x06, 0x08, 0x04, 0x00, 0x00, 0x00, 0x00, 0x00, 0x00,
   0x00, 0x00, 0x00, 0x00, 0x00, 0x00 };
