#define visible_width 15
#define visible_height 15
static unsigned char visible_bits[] = {
   0x00, 0x00, 0x00, 0x00, 0x00, 0x00, 0x00, 0x00, 0xe0, 0x07, 0x78, 0x1e,
   0x1c, 0x38, 0xc6, 0x63, 0xc6, 0x63, 0x1c, 0x38, 0x78, 0x1e, 0xe0, 0x07,
   0x00, 0x00, 0x00, 0x00, 0x00, 0x00 };
