#define jitter_width 15
#define jitter_height 15
static unsigned char jitter_bits[] = {
   0x00, 0x00, 0x00, 0x00, 0x80, 0x00, 0x80, 0x40, 0x80, 0x63, 0x00, 0x03,
   0x30, 0x06, 0x38, 0x04, 0x07, 0x00, 0x07, 0x00, 0x90, 0x08, 0x80, 0x07,
   0x00, 0x07, 0x00, 0x02, 0x00, 0x00 };
