#define orbit_width 15
#define orbit_height 15
static unsigned char orbit_bits[] = {
   0x00, 0x00, 0x70, 0x00, 0xde, 0x05, 0x03, 0x0e, 0x01, 0x1f, 0x00, 0x0e,
   0x00, 0x14, 0x10, 0x10, 0x7c, 0x30, 0x7c, 0x20, 0xfe, 0x30, 0x7c, 0x10,
   0x7c, 0x10, 0x10, 0x18, 0x00, 0x0c };
