#define osquare_width 15
#define osquare_height 15
static unsigned char osquare_bits[] = {
   0x00, 0x00, 0x00, 0x00, 0x00, 0x00, 0xf8, 0x0f, 0x08, 0x08, 0x08, 0x08,
   0x08, 0x08, 0x08, 0x08, 0x08, 0x08, 0x08, 0x08, 0x08, 0x08, 0xf8, 0x0f,
   0x00, 0x00, 0x00, 0x00, 0x00, 0x00 };
