#define scaleto_width 15
#define scaleto_height 15
static unsigned char scaleto_bits[] = {
   0x00, 0x00, 0x00, 0x00, 0x3c, 0x1e, 0x0c, 0x18, 0x14, 0x14, 0x24, 0x12,
   0x00, 0x00, 0x00, 0x00, 0x00, 0x00, 0x24, 0x12, 0x14, 0x14, 0x0c, 0x18,
   0x3c, 0x1e, 0x00, 0x00, 0x00, 0x00 };
