#define reset_width 15
#define reset_height 15
static unsigned char reset_bits[] = {
   0x00, 0x00, 0xe0, 0x13, 0xf0, 0x17, 0x18, 0x1e, 0x0c, 0x1c, 0x06, 0x1f,
   0x06, 0x00, 0x06, 0x00, 0x06, 0x30, 0x06, 0x10, 0x0c, 0x18, 0x18, 0x0c,
   0xf0, 0x07, 0xe0, 0x03, 0x00, 0x00 };
