#define align_v_width 15
#define align_v_height 15
static unsigned char align_v_bits[] = {
   0x00, 0x00, 0x00, 0x00, 0x00, 0x00, 0x80, 0x00, 0x80, 0x00, 0x98, 0x0c,
   0xb0, 0x06, 0xff, 0x7f, 0xb0, 0x06, 0x98, 0x0c, 0x80, 0x00, 0x80, 0x00,
   0x00, 0x00, 0x00, 0x00, 0x00, 0x00 };
