#define ctriangle_width 15
#define ctriangle_height 15
static unsigned char ctriangle_bits[] = {
   0x00, 0x00, 0x80, 0x00, 0xc0, 0x01, 0x40, 0x01, 0x60, 0x03, 0x20, 0x02,
   0xb0, 0x06, 0x90, 0x04, 0xd8, 0x0d, 0xc8, 0x09, 0x0c, 0x18, 0xfc, 0x1f,
   0x00, 0x00, 0x00, 0x00, 0x00, 0x00 };
