#define indent_width 15
#define indent_height 15
static unsigned char indent_bits[] = {
   0x00, 0x00, 0x00, 0x00, 0x10, 0x00, 0x10, 0x00, 0x10, 0x00, 0x10, 0x03,
   0x10, 0x06, 0x10, 0x0c, 0x10, 0x18, 0xf0, 0x3f, 0x00, 0x18, 0x00, 0x0c,
   0x00, 0x06, 0x00, 0x03, 0x00, 0x00 };
